<svg width="96" height="96" viewBox="0 0 120 120" fill="#DBDFE9" xmlns="http://www.w3.org/2000/svg">
<path d="M30.7368 52.4471H67.1402C69.2276 52.4471 70.8815 50.7932 70.8815 48.7059C70.8815 46.6186 69.2276 44.9647 67.1402 44.9647H30.7368C28.6495 44.9647 26.9956 46.6186 26.9956 48.7059C26.9956 50.7932 28.6495 52.4471 30.7368 52.4471Z" fill="#B6BDD1" stroke="#B6BDD1" stroke-width="2"/>
<path d="M27.9956 67.6751C27.9956 69.2102 29.2018 70.4163 30.7368 70.4163H75.4736C77.0086 70.4163 78.2148 69.2102 78.2148 67.6751C78.2148 66.1401 77.0086 64.9339 75.4736 64.9339H30.7368C29.2018 64.9339 27.9956 66.2502 27.9956 67.6751Z" fill="#B6BDD1" stroke="#B6BDD1" stroke-width="2"/>
<path d="M30.7368 84.0128C29.2018 84.0128 27.9956 85.219 27.9956 86.754C27.9956 88.2891 29.2018 89.4953 30.7368 89.4953H55.9561C57.4911 89.4953 58.6973 88.2891 58.6973 86.754C58.6973 85.219 57.4911 84.0128 55.9561 84.0128H30.7368Z" fill="#B6BDD1" stroke="#B6BDD1" stroke-width="2"/>
<path d="M92.7981 47.9383C91.5 47.5 90.0569 49.1445 90.0569 50.6795V97.39C90.0569 101.337 86.8774 104.517 82.9301 104.517L23.61 104.518C19.6626 104.518 16.4832 101.338 16.4832 97.3907L16.4824 35.1102C16.4824 31.1628 19.6619 27.9834 23.6092 27.9834H67.3592C68.8942 27.9834 70.1004 26.7772 70.1004 25.2421C70.1004 23.7071 68.8942 22.5009 67.3592 22.5009H23.6092C16.7012 22.5009 11 28.0928 11 35.1102V97.3907C11 104.299 16.5919 110 23.6092 110H82.9293C89.8374 110 95.5385 104.408 95.5385 97.3907V50.6803C95.5385 49.1453 94.3324 47.9391 92.7973 47.9391L92.7981 47.9383Z" fill="#B6BDD1" stroke="#B6BDD1" stroke-width="2"/>
<path d="M105.737 22.7195H95.7584L95.7592 12.7412C95.7592 11.2062 94.553 10 93.0179 10C91.4829 10 90.2767 11.2062 90.2767 12.7412V22.7195H80.2985C78.7634 22.7195 77.5573 23.9256 77.5573 25.4607C77.5573 26.9957 78.7634 28.2019 80.2985 28.2019H90.2767V38.1802C90.2767 39.7152 91.4829 40.9214 93.0179 40.9214C94.553 40.9214 95.7592 39.7152 95.7592 38.1802V28.2019H105.737C107.272 28.2019 108.479 26.9957 108.479 25.4607C108.478 23.9256 107.272 22.7195 105.737 22.7195Z" fill="#B6BDD1" stroke="#B6BDD1" stroke-width="2"/>
</svg>
