<?xml version="1.0" encoding="UTF-8"?> <svg xmlns="http://www.w3.org/2000/svg" width="135" height="37" viewBox="0 0 135 37" fill="none"><path d="M31.3571 24.9348C31.4136 24.9817 30.6105 25.7391 30.6105 25.7391C30.6105 25.7391 22.8114 30.6878 19.6331 32.5812C16.5385 34.4305 13.0257 36.6321 9.34556 36.412C8.84373 36.3679 8.30008 36.3239 7.75643 36.1918C7.38005 36.1037 7.0455 36.0157 6.66912 35.8836C5.28908 35.3552 4.11814 34.4746 3.19811 33.3297C0.939866 30.5117 0.396214 26.725 0.145298 23.2024C-0.189257 18.8873 0.103479 14.4841 0.521673 10.2131C0.73077 8.23162 0.939866 6.29423 1.73443 4.44489C4.15996 -1.14715 10.5165 -0.486669 15.1166 1.18654C20.0095 2.94781 26.5122 6.12963 30.6105 9.65217C29.0632 10.9731 31.2439 13.0252 29.8639 14.4783C28.5675 15.8873 28.6573 16.4745 29.1173 18.5C29.7446 21.4942 29.1825 23.1295 31.3571 24.9348Z" fill="#85CDCA"></path><path d="M61.0749 23.2024C60.824 26.769 60.2803 30.5117 58.0221 33.3297C57.1021 34.5186 55.8893 35.3992 54.5511 35.8836C54.2165 36.0157 53.8402 36.1478 53.4638 36.1918C52.9619 36.3239 52.4183 36.3679 51.8746 36.412C48.1527 36.6321 43.966 34.984 40.8143 32.9782C37.636 31.0849 33.4964 28.0728 30.6109 25.7391L29.8643 24.9348C32.0389 23.1295 32.1816 21.4942 32.8507 18.5C33.3107 16.4745 34.1471 16.6476 32.8507 15.2826C31.4706 13.8296 32.1582 11.0172 30.6109 9.65217C34.7092 6.12963 41.2525 2.94781 46.1454 1.18654C50.7873 -0.486669 57.1021 -1.14715 59.5276 4.44489C60.3222 6.29423 60.5313 8.23162 60.7404 10.2131C61.1167 14.4841 61.4095 18.8873 61.0749 23.2024Z" fill="#E8AB7C"></path><path d="M37.2486 18.4299C36.5452 21.4241 33.4677 23.4935 31.1816 25.2989C31.0057 25.4309 30.8299 25.6071 30.6101 25.7392C30.4342 25.6071 30.2584 25.475 30.0385 25.2989C27.7524 23.4935 24.6749 21.4241 23.9715 18.4299C23.4879 16.4044 24.587 14.5551 25.9499 13.1901C27.4007 11.7371 28.9835 11.0172 30.6102 9.65222C32.2368 10.9732 33.7315 11.7371 35.1823 13.1901C36.6331 14.5551 37.7322 16.4044 37.2486 18.4299Z" fill="#762232"></path><path d="M122.229 19.2475C122.419 20.7258 122.782 22.0757 123.847 23.1376C123.912 23.2035 123.981 23.2625 124.054 23.3215C124.704 23.8628 125.465 24.1613 126.294 24.2203C128.148 24.3521 129.949 24.1439 131.65 23.3284C132.165 23.082 132.604 23.1723 133.002 23.5783C133.092 23.6685 133.178 23.7622 133.261 23.8559C134.001 24.7061 133.745 25.9727 132.725 26.4481C131.781 26.8888 130.782 27.1664 129.755 27.3295C128.614 27.51 127.47 27.6141 126.315 27.4996C122.972 27.1734 120.683 25.473 119.556 22.27C119.079 20.9167 118.906 19.5078 118.871 18.0815C118.833 16.4783 118.965 14.8959 119.421 13.3482C119.66 12.5466 119.988 11.7867 120.438 11.0787C121.278 9.76007 122.415 8.79884 123.878 8.25055C125.89 7.49753 127.937 7.40383 129.956 8.18809C132.708 9.2569 134.305 11.3112 134.848 14.2054C135.073 15.4095 135.028 16.6206 134.841 17.8282C134.713 18.661 134.063 19.2232 133.213 19.2371C132.787 19.244 132.359 19.2371 131.933 19.2371C128.846 19.2371 125.758 19.2371 122.671 19.2371C122.54 19.2475 122.415 19.2475 122.229 19.2475ZM122.225 15.9231C122.657 15.9994 131.477 15.9786 131.75 15.8953C131.695 15.4685 131.671 15.0278 131.581 14.601C131.228 12.9145 130.239 11.7693 128.614 11.1967C127.871 10.933 127.1 10.9087 126.325 10.985C124.887 11.1308 123.784 11.8144 123.069 13.0914C122.744 13.671 122.533 14.2921 122.394 14.9376C122.325 15.2672 122.28 15.5969 122.225 15.9231Z" fill="#404040"></path><path d="M96.3718 22.7525C96.4341 22.5928 96.4825 22.4783 96.5274 22.3638C98.1835 17.7936 99.8465 13.2268 101.492 8.65314C101.672 8.14996 102.063 7.73702 102.74 7.77866C103.051 7.79601 103.363 7.79948 103.674 7.77866C104.414 7.73355 105.053 8.4831 104.752 9.30206C104.255 10.645 103.774 11.9914 103.287 13.3379C101.52 18.21 99.7531 23.0821 97.9829 27.9542C97.3053 29.8247 96.396 31.5702 95.103 33.0936C93.5299 34.9432 91.6007 36.248 89.2497 36.9003C88.9108 36.994 88.5789 37.0496 88.2332 36.9385C87.6766 36.7546 87.2859 36.2653 87.2548 35.6788C87.2409 35.3908 87.2271 35.0993 87.2444 34.8113C87.2755 34.3081 87.5798 33.9334 88.0672 33.8154C90.3664 33.2636 92.0536 31.8721 93.357 29.9531C93.8376 29.2451 94.2248 28.4817 94.5705 27.7009C94.6604 27.4962 94.6673 27.3227 94.5809 27.111C93.0286 23.2313 91.4797 19.3482 89.9342 15.4651C89.1252 13.4385 88.3196 11.4119 87.5072 9.38535C87.3827 9.06956 87.3412 8.75724 87.483 8.44493C87.6627 8.03892 87.9774 7.80642 88.4199 7.7856C88.8452 7.76825 89.2739 7.76825 89.6991 7.7856C90.1866 7.80642 90.5116 8.07015 90.6914 8.52128C91.0959 9.54151 91.5039 10.5583 91.9084 11.5785C93.3432 15.1805 94.7814 18.786 96.2162 22.3881C96.2577 22.4957 96.3061 22.5998 96.3718 22.7525Z" fill="#404040"></path><path d="M79.4253 28.1414C78.6682 28.1622 77.9352 28.0096 77.2126 27.8152C76.2653 27.5619 75.3491 27.2253 74.4536 26.8262C73.3542 26.3369 72.801 25.1814 73.1053 24.0223C73.2747 23.3734 73.9247 23.0576 74.5401 23.3318C74.6542 23.3838 74.7613 23.4532 74.872 23.5157C75.9023 24.0987 76.981 24.5463 78.1496 24.7545C79.045 24.9142 79.9405 24.9385 80.8117 24.6435C81.1021 24.5463 81.3891 24.4075 81.6449 24.2375C82.5992 23.6163 82.7651 22.3428 82.5162 21.5898C82.3883 21.2046 82.1463 20.9027 81.8351 20.6493C81.4098 20.3058 80.9293 20.0525 80.421 19.8581C79.7123 19.5875 78.9931 19.3411 78.274 19.0982C77.3336 18.7789 76.414 18.4215 75.5669 17.8906C74.6715 17.3319 73.9247 16.6309 73.4199 15.6835C72.4242 13.8166 72.5798 10.6414 74.8824 8.80915C75.9196 7.98325 77.1089 7.52172 78.4158 7.36556C80.1825 7.15388 81.8731 7.52519 83.5361 8.08389C83.6571 8.12553 83.7747 8.1637 83.8922 8.21575C84.4903 8.47601 84.7427 9.11799 84.4696 9.71486C84.3209 10.0411 84.1584 10.3568 83.9925 10.6761C83.7055 11.2279 83.1835 11.443 82.5957 11.2383C81.8558 10.978 81.1021 10.7663 80.3242 10.6587C79.4945 10.5477 78.6682 10.5616 77.8695 10.8496C77.1089 11.1237 76.4935 11.5679 76.248 12.3799C75.8988 13.5216 76.2238 14.3683 77.0881 14.9687C77.7001 15.392 78.3881 15.6558 79.083 15.9022C79.9405 16.2041 80.8083 16.4817 81.6519 16.8148C82.6545 17.2104 83.5741 17.7552 84.352 18.5256C85.5898 19.7506 86.0289 21.2532 85.8456 22.957C85.5517 25.7019 83.6364 27.3086 81.3303 27.9055C80.7115 28.0651 80.0753 28.1484 79.4253 28.1414Z" fill="#404040"></path><path d="M111.141 7.66409C111.283 7.66409 111.407 7.66409 111.532 7.66409C113.064 7.66409 114.595 7.66409 116.13 7.66409C116.255 7.66409 116.386 7.66409 116.507 7.68839C117.046 7.78208 117.406 8.20197 117.416 8.74679C117.423 9.11809 117.423 9.48593 117.416 9.85724C117.406 10.4437 117.005 10.8844 116.421 10.9503C116.317 10.9608 116.213 10.9573 116.109 10.9573C114.588 10.9573 113.067 10.9573 111.546 10.9573C111.421 10.9573 111.293 10.9573 111.148 10.9573C111.138 11.0649 111.127 11.1551 111.127 11.2418C111.127 14.2713 111.124 17.3008 111.127 20.3302C111.127 21.0034 111.193 21.6732 111.411 22.3117C111.522 22.6379 111.667 22.9606 111.853 23.2452C112.268 23.8767 112.898 24.189 113.634 24.2272C114.44 24.2689 115.245 24.255 116.051 24.2654C116.189 24.2689 116.327 24.2619 116.466 24.2793C117.015 24.3487 117.406 24.779 117.42 25.3342C117.427 25.5667 117.423 25.7957 117.42 26.0282C117.409 26.8333 116.846 27.5065 116.047 27.5343C115.003 27.569 113.952 27.621 112.908 27.4441C110.771 27.0762 109.33 25.8513 108.507 23.8628C108.126 22.9467 107.95 21.982 107.884 20.9965C107.86 20.6391 107.857 20.2816 107.857 19.9207C107.857 14.1603 107.857 8.40324 107.857 2.64276C107.857 2.49354 107.853 2.34085 107.871 2.19163C107.922 1.68846 108.313 1.27898 108.818 1.24775C109.264 1.21999 109.717 1.21999 110.163 1.24775C110.674 1.27898 111.069 1.70234 111.12 2.22634C111.131 2.34085 111.127 2.45884 111.127 2.57335C111.127 4.15922 111.127 5.74162 111.127 7.32749C111.124 7.43159 111.134 7.53569 111.141 7.66409Z" fill="#404040"></path></svg> 